<?xml version="1.0" encoding="UTF-8"?>
<svg viewBox="0 0 540 540" xmlns="http://www.w3.org/2000/svg" xmlns:xlink="http://www.w3.org/1999/xlink">
 <g transform="translate(0 -512.36)">
  <g fill="#006400" font-family="MA Sexy" font-size="87.316" letter-spacing="0" word-spacing="0">
   <path d="m148.42 639.36c4.9521 1.651 11.658 10.162 20.118 25.535l14.547 21.356c25.792-48.902 46.117-76.5 60.973-82.794 14.959-6.3962 27.959 2.8374 38.998 27.701s14.959 71.29 11.761 139.28c11.348-71.084 22.646-115.7 33.891-133.86 11.348-18.261 20.892-29.609 28.63-34.046s16.146-5.7772 25.225-4.0236c9.1818 1.651 17.126 7.9959 23.832 19.035 6.7058 10.936 9.9556 33.479 9.7495 67.628s-2.5279 60.922-6.9639 80.318c-4.3334 19.396-7.6864 43.641-10.059 72.735-2.3732 28.991 0.92825 47.252 9.9043 54.783 9.0786 7.6345 17.281 8.4599 24.606 2.4761 7.3247-5.8807 12.071-14.237 14.237-25.07 2.2694-10.833 3.8685-15.114 4.7974-12.845 0.92822 2.1665 1.3925 4.7974 1.3928 7.8925 0.10276 3.0951 0.41236 7.8409 0.92854 14.237s-1.8058 13.515-6.964 21.356c-5.0556 7.944-13.206 11.452-24.451 10.523-11.246-0.8254-21.408-5.9323-30.487-15.321-9.0792-9.2853-13.464-25.328-13.154-48.129 0.41242-22.904 2.3211-47.819 5.7259-74.747 3.5075-26.927 5.9836-55.969 7.4282-87.127 1.5473-31.157-1.2899-52.72-8.5115-64.687-7.119-11.967-16.507-12.69-28.165-2.1666-11.555 10.524-20.841 27.392-27.856 50.605-7.0157 23.11-12.742 48.49-17.178 76.139-4.4365 27.546-8.7696 49.986-12.999 67.318s-8.9759 26.102-14.237 26.308c-2.7857-18.467-4.9007-42.557-6.3449-72.27-1.4446-29.816-3.25-57.569-5.4164-83.258-2.0636-25.792-7.1704-43.176-15.321-52.152-8.0474-9.0787-17.229-8.2018-27.546 2.6308-10.317 10.73-23.523 32.86-39.617 66.39 5.4679 21.356 11.658 47.407 18.571 78.151 6.9123 30.641 10.111 56.537 9.5948 77.687-0.41278 21.047-1.7024 37.657-3.8689 49.831s-5.9839 25.999-11.452 41.474c-5.3649 15.579-10.988 27.134-16.868 34.665-5.7776 7.6344-12.793 12.948-21.047 15.94s-15.527 2.0117-21.82-2.9403c-6.1902-4.8491-10.988-13.928-14.392-27.237-3.3014-13.309-3.4046-30.848-0.3095-52.617 3.0951-21.666 6.9124-42.454 11.452-62.366s7.8409-35.181 9.9043-45.807c2.1665-10.73 5.0553-22.955 8.6663-36.677 3.7141-13.721 8.7694-37.399 15.166-71.032-5.5712-14.031-16.249-26.927-32.034-38.689 0.72218-9.4914 3.0435-16.868 6.964-22.13m30.332 79.699c-6.7061 33.427-11.452 56.176-14.237 68.247-2.7856 11.968-6.1902 27.546-10.214 46.736s-8.2536 40.494-12.69 63.914-5.8291 41.835-4.1784 55.247c1.7539 13.515 5.7775 20.84 12.071 21.975 6.3965 1.1347 11.555-1.1e-4 15.475-3.4046 4.0236-3.4047 8.563-9.9044 13.618-19.499s9.6979-25.019 13.928-46.272c4.3331-21.15 6.3964-37.812 6.1902-49.986-0.1033-12.174-1.496-28.991-4.1784-50.45-2.5793-21.562-7.841-50.398-15.785-86.508" fill="#006400"/>
  </g>
  <g fill="#9acd32">
   <g transform="matrix(.03925 -.0142 .01582 .04373 278 592.11)" fill="#9acd32">
    <path d="m-1135.8 2575.7c-137.11-177.46-858.85-290.58-1224.6-256.46-541.68 50.651-702.59 282.74-685.27 497.24 23.147 284.38 247.42 357.74 514.57 335.72 449.46-36.95 1008.3-763.3 1395.3-576.51z" fill="#9acd32" fill-rule="evenodd" opacity=".9"/>
   </g>
  </g>
  <g transform="matrix(.33746 -.443 .45068 .32618 564.04 2897.9)">
   <g transform="matrix(1.1648 1.3155e-8 -1.3155e-8 1.1648 2658.2 -3932.7)" fill="#ff6347">
    <path transform="matrix(.79454 .48747 -.51076 .75832 38.586 322.91)" d="m355.93 328.94a57.838 77.414 0 1 1 -115.68 0 57.838 77.414 0 1 1 115.68 0z"/>
    <path d="m228.75 693.62a70.676 53.122 47.848 0 1 -84.494 64.669 70.676 53.122 47.848 1 1 84.494 -64.669z"/>
    <path transform="matrix(.37998 -.81061 .87324 .35273 -305.3 778.57)" d="m355.93 328.94a57.838 77.414 0 1 1 -115.68 0 57.838 77.414 0 1 1 115.68 0z"/>
    <path transform="matrix(.81538 0 0 .83908 -92.097 325.99)" d="m355.93 328.94a57.838 77.414 0 1 1 -115.68 0 57.838 77.414 0 1 1 115.68 0z"/>
    <path transform="matrix(.49336 .75586 -.75428 .49438 308.92 267.3)" d="m355.93 328.94a57.838 77.414 0 1 1 -115.68 0 57.838 77.414 0 1 1 115.68 0z"/>
   </g>
   <g fill="#fff">
    <path transform="matrix(.54605 .33501 -.35102 .52115 2754.8 -3388)" d="m355.93 328.94a57.838 77.414 0 1 1 -115.68 0 57.838 77.414 0 1 1 115.68 0z"/>
    <path transform="matrix(.50199 -.3842 .39859 .48387 2583.2 -3161.3)" d="m355.93 328.94a57.838 77.414 0 1 1 -115.68 0 57.838 77.414 0 1 1 115.68 0z"/>
    <path transform="matrix(.26114 -.55709 .60013 .24241 2518.5 -3074.8)" d="m355.93 328.94a57.838 77.414 0 1 1 -115.68 0 57.838 77.414 0 1 1 115.68 0z"/>
    <path transform="matrix(.56037 0 0 .57666 2665 -3385.9)" d="m355.93 328.94a57.838 77.414 0 1 1 -115.68 0 57.838 77.414 0 1 1 115.68 0z"/>
    <path transform="matrix(.33906 .51946 -.51838 .33976 2940.6 -3426.2)" d="m355.93 328.94a57.838 77.414 0 1 1 -115.68 0 57.838 77.414 0 1 1 115.68 0z"/>
   </g>
   <path d="m2858.5-3147.4a28.785 28.785 0 0 1 -57.57 0 28.785 28.785 0 1 1 57.57 0z" fill="#f0e060"/>
  </g>
  <g fill="#9acd32">
   <g transform="matrix(-.03076 -.02821 .03144 -.03427 -35.532 789.2)" fill="#9acd32">
    <path d="m-1135.8 2575.7c-137.11-177.46-858.85-290.58-1224.6-256.46-541.68 50.651-702.59 282.74-685.27 497.24 23.147 284.38 247.42 357.74 514.57 335.72 449.46-36.95 1008.3-763.3 1395.3-576.51z" fill="#9acd32" fill-rule="evenodd" opacity=".9"/>
   </g>
  </g>
 </g>
</svg>
